#N canvas 0 0 939 1001 10;
#X declare -path build;
#X obj 6 9 declare -path build;
#X text 25 65 500 harmonics series, f 21;
#X obj 279 14 tgl 18 0 empty empty empty 0 -9 0 10 #fcfcfc #000000 #000000 0 1;
#X text 312 13 Turn audio ON;
#X obj 29 217 gpu~ fft~;
#X msg 93 218 \; pd dsp 1;
#N canvas 0 50 450 250 (subpatch) 0;
#X array fft 512 float 0;
#A color 0;
#A width 1;
#X coords 0 1 511 -1 200 140 1;
#X restore 207 325 graph;
#X obj 279 87 switch~ 4096;
#X obj 29 386 tabwrite~ fft;
#X obj 43 336 bng 40 250 50 0 empty empty empty 0 -9 0 10 #fcfcfc #000000 #000000;
#X obj 29 249 /~ 4096;
#X obj 29 151 +~, f 7;
#X obj 29 102 osc~ 440, f 9;
#X obj 68 129 osc~ 880;
#X obj 29 306 snake~ out 1;
#X obj 29 182 snake~ in 8, f 46;
#X connect 2 0 7 0;
#X connect 4 0 10 0;
#X connect 9 0 8 0;
#X connect 10 0 14 0;
#X connect 11 0 15 0;
#X connect 11 0 15 1;
#X connect 11 0 15 2;
#X connect 11 0 15 3;
#X connect 11 0 15 4;
#X connect 11 0 15 5;
#X connect 11 0 15 6;
#X connect 11 0 15 7;
#X connect 12 0 11 0;
#X connect 13 0 11 1;
#X connect 14 0 8 0;
#X connect 15 0 4 0;
