#N canvas 0 0 939 1001 10;
#X declare -path build;
#X declare -path build;
#X declare -path build;
#X obj -3 29 declare -path build;
#X obj -236 235 gpu~ compute;
#X obj -181 51 osc~ 550;
#X obj -236 29 osc~ 440;
#X obj -125 75 osc~ 660;
#X obj -236 318 dac~, f 5;
#X obj -236 140 snake~ in 4, f 28;
#X obj -69 101 osc~ 770;
#X obj -236 274 snake~ out 4;
#X msg -226 193 reload;
#X text -129 234 Usage: gpu~ <shader_name> (without extension);
#X msg 49 192 param 0 \$1;
#X obj 52 135 hsl 153 18 0 127 0 0 empty empty empty -2 -9 0 10 #fcfcfc #000000 #000000 0 1;
#X obj 49 158 / 127;
#N canvas 0 0 939 1001 500-osc 0;
#X obj 6 9 declare -path build;
#X msg 63 126 reload;
#X text 115 127 Reload shader;
#X text 185 138 Usage: gpu~ <shader_name> (without extension);
#X text 181 160 Shader must be in pd search path!;
#X obj 29 281 gpu~ osc~;
#X obj 29 442 dac~;
#X msg 91 245 param 0 \$1;
#X obj 91 152 loadbang;
#X msg 91 172 220;
#X obj 91 210 nbx 5 16 -1e+37 1e+37 0 0 empty empty empty 0 -9 0 10 #fcfcfc #000000 #000000 0 256;
#X obj 29 89 snake~ in 500, f 19;
#X obj 29 306 snake~ out 500, f 80;
#X obj 29 394 *~ 0.2;
#X text 25 65 500 harmonics series, f 21;
#X obj 279 87 switch~;
#X obj 279 14 tgl 18 0 empty empty empty 0 -9 0 10 #fcfcfc #000000 #000000 0 1;
#X text 312 13 Turn audio ON;
#X connect 1 0 5 0;
#X connect 5 0 12 0;
#X connect 7 0 5 0;
#X connect 8 0 9 0;
#X connect 9 0 10 0;
#X connect 10 0 7 0;
#X connect 11 0 5 0;
#X connect 12 0 13 0;
#X connect 12 9 13 0;
#X connect 12 10 13 0;
#X connect 12 25 13 0;
#X connect 12 66 13 0;
#X connect 13 0 6 0;
#X connect 13 0 6 1;
#X connect 16 0 15 0;
#X restore -1 337 pd 500-osc;
#X text -3 319 Examples;
#X obj -121 274 tgl 37 0 empty empty empty 0 -9 0 10 #fcfcfc #000000 #000000 0 1;
#X msg -121 320 \; pd dsp \$1;
#X text -69 273 1) Audio On.;
#X text 49 112 2) Change the gain;
#X text -181 192 3) Reload shader;
#X text -240 365 * Shader must be in pd search path!;
#N canvas 0 0 939 1001 50-dft 0;
#X obj 6 9 declare -path build;
#X text 25 65 500 harmonics series, f 21;
#X obj 279 14 tgl 18 0 empty empty empty 0 -9 0 10 #fcfcfc #000000 #000000 0 1;
#X text 312 13 Turn audio ON;
#X obj 29 217 gpu~ fft~;
#X msg 93 218 \; pd dsp 1;
#N canvas 0 50 450 250 (subpatch) 0;
#X array fft 512 float 0;
#X coords 0 1 511 -1 200 140 1;
#X restore 207 325 graph;
#X obj 279 87 switch~ 4096;
#X obj 29 386 tabwrite~ fft;
#X obj 43 336 bng 40 250 50 0 empty empty empty 0 -9 0 10 #fcfcfc #000000 #000000;
#X obj 29 249 /~ 4096;
#X obj 29 151 +~, f 7;
#X obj 29 102 osc~ 440, f 9;
#X obj 68 129 osc~ 880;
#X obj 29 306 snake~ out 1;
#X obj 29 182 snake~ in 16, f 46;
#X connect 2 0 7 0;
#X connect 4 0 10 0;
#X connect 9 0 8 0;
#X connect 10 0 14 0;
#X connect 11 0 15 0;
#X connect 11 0 15 1;
#X connect 11 0 15 2;
#X connect 11 0 15 3;
#X connect 11 0 15 4;
#X connect 11 0 15 5;
#X connect 11 0 15 6;
#X connect 11 0 15 7;
#X connect 11 0 15 8;
#X connect 11 0 15 9;
#X connect 11 0 15 10;
#X connect 11 0 15 11;
#X connect 11 0 15 12;
#X connect 11 0 15 13;
#X connect 11 0 15 14;
#X connect 11 0 15 15;
#X connect 12 0 11 0;
#X connect 13 0 11 1;
#X connect 14 0 8 0;
#X connect 15 0 4 0;
#X restore -1 359 pd 50-dft;
#X obj 87 318 switch~;
#X obj 87 293 tgl 18 0 empty empty empty 0 -9 0 10 #fcfcfc #000000 #000000 0 1;
#X connect 1 0 8 0;
#X connect 2 0 6 1;
#X connect 3 0 6 0;
#X connect 4 0 6 2;
#X connect 6 0 1 0;
#X connect 7 0 6 3;
#X connect 8 0 5 0;
#X connect 8 1 5 1;
#X connect 8 2 5 0;
#X connect 8 3 5 1;
#X connect 9 0 1 0;
#X connect 11 0 1 0;
#X connect 12 0 13 0;
#X connect 13 0 11 0;
#X connect 16 0 17 0;
#X connect 24 0 23 0;
